<svg width="111" height="231" viewBox="0 0 111 231" fill="none" xmlns="http://www.w3.org/2000/svg">
<g clip-path="url(#clip0_210_107)">
<path d="M109.473 167.904C108.893 151.488 107.689 135.111 105.451 118.827C105.273 117.542 104.931 116.215 106.443 115.382C106.696 115.241 106.865 114.747 106.874 114.408C106.912 112.238 106.518 110.412 106.518 110.412C106.518 110.412 106.383 109.198 105.994 107.838C105.394 106.031 104.149 104.52 102.463 103.621C101.573 102.911 100.398 102.628 99.3393 102.266C97.4802 101.635 96.8621 101.588 96.8621 101.588C96.8621 101.588 96.4359 101.489 95.4057 100.623C91.1301 95.0748 88.8729 88.8109 87.7444 82.1468C87.2386 79.1725 86.391 76.8994 82.7945 77.0218C82.846 76.0005 82.846 75.1911 82.9303 74.391C83.4641 69.4071 84.1572 64.4326 84.5225 59.4346C85.2109 49.9469 85.918 40.4498 86.2411 30.9385C86.5502 21.7284 82.0874 14.5609 75.3392 8.81926C69.1671 3.57183 61.754 0.875169 53.7602 0.277479C44.2772 -0.428453 34.7849 0.211592 25.4658 2.13173C15.6831 4.14128 8.02179 9.49696 3.2686 18.4247C-0.665081 25.804 -0.772789 33.7246 1.47971 41.6357C4.31758 51.6176 7.40364 61.5289 10.3352 71.4873C11.2249 74.5087 11.9555 77.5771 12.7563 80.6173C11.726 81.135 10.9159 81.3844 10.3024 81.8833C9.614 82.448 8.7898 83.1493 8.58375 83.9399C8.19506 85.4318 8.08735 87.0272 8.07331 88.5802C8.04053 93.7194 8.07331 98.8586 8.13418 104.003C8.15292 105.664 8.22784 108.723 8.46199 109.518C8.69614 110.314 10.0636 112.384 11.0844 113.194C12.1053 114.003 14.2548 114.507 14.1892 114.869C13.7537 117.213 15.4583 117.825 16.9803 118.724C17.4954 119.029 18.0012 119.782 18.0527 120.371C18.3243 123.43 18.4179 126.498 18.6287 129.567C18.6942 130.574 18.7364 131.397 17.8747 132.235C16.91 133.176 17.0552 134.447 17.9543 135.459C18.5631 136.146 16.8913 132.983 17.5891 133.591C16.6197 133.242 18.6334 133.892 17.7483 133.365C16.4839 132.612 15.4068 135.713 15.2476 137.003C14.9994 138.956 15.8002 140.518 17.4345 141.44C18.6568 142.132 18.7645 143.008 18.713 144.217C17.9824 162.393 16.4605 180.497 14.1892 198.541C13.9785 200.207 14.0066 201.497 15.936 202.09C15.463 202.739 15.1071 203.233 14.7512 203.727C16.4605 204.786 18.624 204.137 19.0923 202.311C19.687 199.991 20.2537 197.633 20.5206 195.256C21.9067 183.053 23.218 170.845 24.4917 158.628C24.9694 154.091 25.2738 149.535 25.6718 144.862C27.1844 145.168 28.5706 145.587 29.9802 145.69C31.3757 145.794 31.6613 146.377 31.7082 147.69C32.3778 166.605 33.0849 185.524 33.8342 204.438C34.1433 212.33 34.5132 220.223 35.0331 228.101C35.0986 229.051 36.1054 230.27 37.0046 230.755C37.9178 231.254 39.2805 231.047 39.7441 229.626C40.0345 228.727 40.4325 227.795 40.4465 226.877C40.587 213.337 40.7884 199.802 40.7275 186.267C40.6713 173.852 40.3248 161.442 40.1047 149.032C40.0953 148.382 40.1047 147.733 40.1047 147.257H73.4098C73.4239 147.408 73.4941 147.766 73.5082 148.128C73.7236 155.211 73.9062 162.289 74.1357 169.372C74.4026 177.452 74.693 185.528 75.0021 193.609C75.0863 195.722 76.7488 197.195 78.4487 196.56C79.9145 196.009 80.5888 194.748 80.5186 193.152C80.4062 190.522 80.2189 187.896 80.1673 185.265C79.9285 172.793 79.7459 160.317 79.479 147.846C79.4462 146.335 80.0643 146.001 81.3896 145.789C84.8924 145.229 88.4047 144.622 91.8466 143.77C94.5253 143.102 97.1056 142.033 99.9388 141.073C99.9856 141.85 100.042 142.514 100.075 143.182C100.374 148.754 100.543 154.336 100.988 159.894C102.023 172.76 103.222 185.618 104.294 198.485C104.851 205.167 105.273 211.86 105.764 218.547C105.9 220.387 108.022 222.176 109.071 221.253C110.002 220.43 111.061 219.559 111.005 217.902C110.457 201.242 110.073 184.568 109.483 167.908L109.473 167.904ZM99.8123 118.629C99.8123 119.378 99.8217 120.272 99.8123 121.171C99.7889 124.023 99.728 126.879 99.7187 129.731C97.8549 128.955 94.9842 128.028 93.9165 127.764C90.2919 126.875 86.6251 126.122 82.9303 125.557C79.671 125.063 79.596 125.133 80.3453 121.773C86.7422 120.743 93.1204 119.712 99.8123 118.629ZM82.6634 82.448C84.2228 88.4438 85.6604 94.4536 89.5473 100.063C86.7188 99.8469 84.396 99.7057 82.0873 99.4516C81.7783 99.4187 81.2772 98.8021 81.2959 98.4774C81.605 93.23 81.9843 87.9873 82.3636 82.7445C82.3636 82.6551 82.5229 82.5798 82.668 82.4433L82.6634 82.448ZM17.0739 106.727C17.1863 107.226 17.3315 109.302 16.3106 109.674C15.2897 110.045 15.3553 108.605 13.0794 107.537C10.8035 106.469 13.0794 85.5447 13.0794 85.5447C13.2667 85.5071 13.454 85.4694 13.646 85.4365C13.8006 85.8836 14.0253 86.326 14.0909 86.7872C14.9338 92.4629 15.7627 98.1386 16.5588 103.819C16.6244 104.271 16.9662 106.233 17.0786 106.727H17.0739ZM31.7925 139.949C29.8537 139.572 28.1163 139.276 26.4024 138.861C26.1589 138.805 25.9294 138.207 25.8966 137.84C25.6016 134.447 25.625 134.424 28.9124 133.576C29.8537 133.332 30.809 133.129 31.7878 132.899V139.949H31.7925ZM32.2139 126.795C32.1858 127.077 31.6613 127.425 31.3101 127.538C30.0036 127.938 28.6877 128.348 27.339 128.527C26.9035 128.588 25.9996 128 25.9528 127.632C25.6953 125.486 25.625 123.317 25.4798 120.964C27.8962 121.274 30.0317 121.543 32.4715 121.853C32.4012 123.496 32.3685 125.148 32.2139 126.795ZM31.6051 101.376C28.683 102.026 25.7889 102.755 23.1337 103.391C23.2648 102.769 23.6675 101.941 23.5645 101.183C21.5696 86.2883 17.5656 71.9155 12.3067 57.8675C9.70297 50.8976 6.84169 43.97 5.92383 36.5012C4.77651 27.15 6.54198 18.7259 14.3578 12.5419C18.8347 8.9981 24.0703 7.29445 29.6711 6.60264C30.5936 6.48969 31.5162 6.42851 32.4434 6.3485C32.4574 6.41439 32.4715 6.48027 32.4855 6.54616C31.2914 7.03561 30.0363 7.41681 28.9078 8.02862C20.0476 12.8054 16.9428 20.7166 17.2519 30.2984C17.472 37.2072 19.879 43.6547 21.991 50.1352C26.1261 62.8137 29.9567 75.5628 31.7737 88.8297C32.2561 92.364 32.5558 95.9219 33.0147 99.461C33.1739 100.661 32.715 101.136 31.6098 101.381L31.6051 101.376ZM36.9016 85.5824C35.197 73.8969 31.8908 62.6349 28.032 51.4953C25.4798 44.1206 22.8527 36.7318 22.3282 28.816C21.7663 20.3871 25.3347 14.4714 32.996 11.6336C34.9488 10.9088 37.0936 10.5841 39.1868 10.3441C49.1381 9.19576 58.5649 16.081 59.7965 26.0252C60.4053 30.9855 59.9791 36.1577 59.4078 41.1651C58.3776 50.1775 56.5606 59.1005 55.6661 68.1223C54.7155 77.7701 54.3877 87.4837 53.9522 97.1738C53.8679 98.9292 53.3387 99.381 51.7278 99.4563C47.3867 99.6587 43.0456 100.016 38.7513 100.308C38.1425 95.3807 37.6227 90.4627 36.9109 85.5824H36.9016ZM38.2034 122.493H73.0727V124.282C61.5948 124.715 50.1262 125.148 38.4469 125.585C38.386 124.823 38.3018 123.731 38.2034 122.493ZM73.2928 139.963C73.2834 140.287 72.4779 140.843 72.0237 140.862C65.4301 141.139 58.8318 141.469 52.2335 141.52C48.136 141.553 44.0337 141.144 39.6973 140.923C39.4584 137.685 39.2337 134.701 39.0136 131.76C43.8557 129.811 66.1981 129.571 73.349 130.503C73.349 133.628 73.3864 136.8 73.2881 139.963H73.2928ZM74.1919 97.7715C74.1404 98.195 74.0701 98.6186 73.9999 99.0845C69.3825 99.0845 64.8447 99.1128 60.3116 99.0186C59.9651 99.0092 59.3376 98.1056 59.3563 97.635C59.7216 89.0038 59.8106 80.3397 60.6722 71.7555C61.8149 60.4277 63.7068 49.1751 65.0274 37.8566C65.8516 30.7973 65.224 23.865 61.8242 17.3846C58.7428 11.4971 54.1395 7.65212 47.6911 6.07554C47.2696 5.972 46.8528 5.86376 46.436 5.7461C46.3986 5.73669 46.3845 5.63786 46.3049 5.44961C57.2021 4.73897 67.0551 6.94148 74.9084 15.0927C79.671 20.0389 81.8111 26.2087 81.6191 32.901C81.4364 39.3156 80.4577 45.716 79.7037 52.1118C77.9055 67.3364 76.0323 82.5563 74.1919 97.7762V97.7715ZM99.7468 134.311C99.7842 136.151 98.4496 136.386 97.3678 136.631C92.3898 137.746 87.3838 138.711 82.3777 139.694C81.5348 139.859 80.6591 139.831 79.7599 139.892V130.734C83.7685 131.303 87.5008 131.793 91.2191 132.376C92.3852 132.56 93.4997 133.007 94.6517 133.266C95.593 133.478 97.8455 133.92 99.7421 134.292V134.315L99.7468 134.311Z" fill="#2D64DA"/>
</g>
<defs>
<clipPath id="clip0_210_107">
<rect width="111" height="231" fill="white"/>
</clipPath>
</defs>
</svg>
