<svg width="153" height="231" viewBox="0 0 153 231" fill="none" xmlns="http://www.w3.org/2000/svg">
<g clip-path="url(#clip0_210_84)">
<path d="M152.138 203.788C152.371 203.697 152.628 203.587 152.895 203.448C152.633 203.553 152.381 203.668 152.138 203.788Z" fill="#248C20"/>
<path d="M149.598 193.872C144.328 176.93 138.991 160.008 133.683 143.081C132.12 138.087 130.591 133.084 128.966 127.836C131.949 127.203 134.407 126.695 136.856 126.168C139.32 125.636 141.779 125.061 144.247 124.538C146.972 123.963 148.268 122.502 148.326 119.511C148.43 112.95 146.872 110.611 140.33 108.531C134.655 106.725 128.98 104.927 123.305 103.106C120.97 102.359 118.435 98.5342 119.498 96.4494C120.785 93.9286 119.417 92.6106 118.293 90.9093C117.416 89.577 116.468 88.2063 115.991 86.7206C111.936 73.9916 108.072 61.1956 103.96 48.481C100.987 39.2889 98.6422 29.7182 94.3729 21.1492C87.7878 7.92181 76.8334 -0.330929 61.4762 0.00934041C49.1018 0.277722 36.7465 1.56212 24.4055 2.6692C17.0724 3.32577 11.1163 6.8339 6.91368 13.0019C1.36737 21.1636 1.15295 30.0298 3.77839 39.1883C7.96671 53.8103 12.4219 68.3556 16.2242 83.0687C16.9866 86.0257 16.4434 90.6936 14.5422 92.625C12.4219 94.7864 13.0127 95.6395 13.7703 97.6044C14.223 98.7978 13.9895 100.331 13.7894 101.678C13.2605 105.32 12.5029 108.929 11.9835 112.581C9.44859 130.381 7.03756 148.204 4.41688 165.994C3.19231 174.299 1.61514 182.557 0.114205 190.819C-0.290809 193.033 0.342919 194.739 2.55858 194.773C3.72121 194.792 5.67957 193.527 5.94641 192.487C7.04233 188.298 7.72847 183.99 8.3622 179.696C9.33899 173.163 13.1842 168.874 19.1546 167.039C25.5872 165.064 32.2866 163.976 38.9479 162.486C39.2433 163.066 39.5197 163.439 39.6388 163.866C45.7474 185.126 51.8273 206.395 57.9931 227.64C58.3647 228.92 59.4654 231.048 60.0801 231C61.7383 230.856 63.3154 229.787 64.926 229.068C64.945 229.064 64.9689 229.049 64.9879 229.04C63.9778 224.372 60.223 212.151 59.313 207.679C57.8597 200.51 60.9664 195.573 68.0851 193.714C87.7259 188.586 107.381 183.491 127.027 178.392C133.107 176.811 137.771 178.78 140.216 184.555C142.617 190.23 144.433 196.148 146.601 201.919C147.039 203.098 147.773 204.828 148.645 205.015C149.583 205.216 150.722 204.459 152.137 203.788C152.38 203.668 152.633 203.553 152.895 203.448C153.672 203.055 149.865 194.749 149.598 193.867V193.872ZM109.258 82.4648C111.036 88.0194 112.803 93.5835 114.981 100.398C111.35 99.1429 108.62 98.2562 105.947 97.2115C105.499 97.0389 104.999 96.0756 105.094 95.5964C105.99 91.2543 107.014 86.9363 108 82.6182C108.42 82.5607 108.839 82.5128 109.258 82.4648ZM13.2414 52.1952C13.1842 52.0035 13.3224 51.7495 13.5559 50.676C22.4186 48.596 31.5576 45.9266 40.8872 44.3738C57.9883 41.5318 75.2181 39.8449 92.6242 41.0717C95.6594 41.2778 97.0174 42.3274 97.8512 45.1933C100.191 53.2687 102.769 61.2771 105.356 69.2758C105.994 71.2359 105.647 72.76 104.989 74.7345C103.398 79.5126 102.549 84.5496 101.415 89.4859C100.982 91.3789 100.581 93.2768 100.038 95.7497C89.5365 91.5706 79.6685 95.0548 69.8004 96.4782C56.6542 98.3617 43.6032 100.844 30.4855 102.905C29.5563 103.049 27.7314 102.085 27.4979 101.29C22.6377 84.957 17.9444 68.5761 13.2367 52.1952H13.2414ZM9.38664 167.724C11.9073 150.734 14.2945 134.603 16.7341 118.169C20.141 119.478 23.2477 120.594 26.2781 121.898C27.0167 122.214 27.8124 123.048 28.0411 123.8C31.4146 135.154 34.6929 146.541 38.033 158.057C28.6129 161.479 18.1445 160.65 9.38664 167.719V167.724ZM34.5023 125.511C38.3094 126.916 41.559 128.061 44.7706 129.321C47.9726 130.577 51.2031 131.794 54.2955 133.299C65.1261 138.576 76.3617 138.916 87.8831 136.376C88.8599 136.16 89.8653 136.079 91.5473 135.844C90.4228 141.13 89.4174 145.827 88.3167 150.993C82.2653 147.279 76.5618 150.111 70.8678 151.238C61.8812 153.011 52.9709 155.115 43.6461 157.161C40.6347 146.742 37.6804 136.505 34.507 125.521L34.5023 125.511ZM137.824 175.215C133.483 172.598 129.399 173.111 125.159 174.203C106.071 179.116 86.9635 183.975 67.8278 188.682C62.8342 189.909 58.4886 191.763 55.482 197.673C51.7654 185.03 48.349 173.441 44.7944 161.393C46.667 160.899 48.3633 160.411 50.0786 160.027C59.8037 157.832 69.5241 155.628 79.273 153.495C85.1195 152.22 87.1255 154.257 85.7723 160.013C84.9384 163.564 84.0379 167.106 83.1325 170.647C82.5893 172.78 83.0706 174.376 85.3863 174.836C87.5496 175.272 88.4978 173.983 88.898 172.023C91.2185 160.626 93.6152 149.249 95.8452 137.833C96.3074 135.504 97.146 134.334 99.6619 133.884C106.881 132.59 114.033 130.956 121.204 129.408C122.81 129.063 124.034 128.986 124.654 130.999C129.004 145.189 133.426 159.361 137.819 173.542C137.909 173.849 137.824 174.199 137.824 175.21V175.215Z" fill="#1D8E36"/>
</g>
<defs>
<clipPath id="clip0_210_84">
<rect width="153" height="231" fill="white"/>
</clipPath>
</defs>
</svg>
