<svg width="164" height="231" viewBox="0 0 164 231" fill="none" xmlns="http://www.w3.org/2000/svg">
<g clip-path="url(#clip0_210_68)">
<path d="M109.403 141.453C105.267 141.174 101.259 140.924 97.2558 140.635C92.2747 140.28 87.2936 139.924 82.3173 139.515C74.4639 138.871 75.0889 139.443 74.7692 146.371C74.4114 154.019 74.8217 161.711 74.9696 169.384C75.0126 171.614 75.2845 173.835 75.4563 176.061C75.5517 177.292 75.3036 178.34 73.8913 178.571C70.6565 179.109 67.4312 179.72 64.1772 180.07C62.4071 180.263 61.9491 178.758 61.9157 177.321C61.7487 170.456 61.6723 163.591 61.5006 156.731C61.3479 150.745 61.1475 144.76 60.8326 138.78C60.804 138.222 59.8688 137.357 59.239 137.232C50.3074 135.487 41.3328 133.968 32.4154 132.136C28.0164 131.232 23.7223 129.804 19.3758 128.627C19.0895 128.55 18.765 128.617 17.9253 128.617C17.9253 132.968 18.0589 137.241 17.8967 141.506C17.5866 149.64 17.0856 157.769 16.7182 165.898C16.4701 171.393 16.3795 176.893 16.0836 182.388C15.7306 188.921 15.2391 195.445 14.8002 201.973C14.6046 204.901 14.3374 207.824 14.2038 210.751C14.137 212.232 13.4022 212.756 12.0758 212.65C9.15588 212.424 6.23114 212.237 3.32549 211.895C0.935125 211.617 -0.0525107 209.9 0.00951472 207.699C0.214676 200.512 0.505718 193.324 0.830159 186.137C1.04963 181.268 1.34545 176.398 1.66035 171.528C2.3474 160.942 3.1251 150.366 3.75012 139.78C4.20339 132.059 5.16717 124.285 4.65188 116.618C3.93143 105.849 6.00212 95.446 7.57662 85.0139C8.54517 78.5912 12.2094 73.2983 18.1496 69.5389C28.1404 63.2172 38.0597 56.5542 45.3978 47.0163C49.8541 41.2234 53.6186 34.8824 57.5357 28.6905C64.015 18.446 72.0687 9.89842 83.1093 4.69682C89.9941 1.45664 97.4133 -0.0528825 105.004 -1.21642e-06C113.182 0.0576875 121.346 1.10089 129.046 3.86033C135.979 6.34576 142.32 9.99457 147.52 15.6384C155.879 24.7148 160.465 35.666 163.418 47.3095C164.792 52.7227 163.695 58.2992 160.507 63.3518C156.762 69.2937 152.182 74.3944 147.019 79.0624C145.087 80.8123 143.031 82.5814 141.647 84.7447C139.099 88.7252 137.653 93.1336 138.336 98.0419C139.028 103.022 139.5 108.032 140.22 113.003C141.184 119.699 142.282 126.377 143.346 133.059C144.729 141.732 146.07 150.414 147.558 159.067C148.68 165.591 150.044 172.076 151.213 178.595C151.733 181.503 152.062 184.445 152.411 187.378C152.482 187.979 152.492 188.906 152.139 189.185C149.071 191.599 146.242 194.608 141.227 194.214C136.728 174.104 132.214 153.913 127.624 133.391C125.153 134.742 123.645 135.818 123.66 138.318C123.693 143.4 123.607 148.486 123.469 153.567C123.335 158.596 123.078 163.62 122.877 168.648C122.806 170.48 122.777 172.311 122.672 174.138C122.061 184.738 121.369 195.334 120.826 205.934C120.449 213.347 120.243 220.77 120.024 228.188C119.971 229.938 119.113 231 117.519 230.99C113.716 230.966 109.914 230.736 106.116 230.529C104.246 230.428 104.403 228.702 104.365 227.625C104.222 223.731 104.079 219.804 104.422 215.929C104.947 209.977 106.063 204.074 106.564 198.117C106.941 193.618 106.717 189.065 106.822 184.541C106.875 182.234 107.046 179.931 107.185 177.624C107.657 169.84 108.139 162.062 108.616 154.284C108.874 150.077 109.136 145.871 109.408 141.448L109.403 141.453ZM19.3185 114.935C20.2012 114.849 20.4588 114.887 20.6449 114.791C21.1363 114.536 21.6134 114.243 22.0667 113.921C27.5679 110.036 33.8515 107.993 40.326 106.835C46.8673 105.666 53.5375 105.205 60.1408 104.354C60.8851 104.258 62.0636 103.768 62.1828 103.258C62.5979 101.498 62.7888 99.6428 62.7745 97.8256C62.7363 92.8115 62.3546 87.7974 62.4691 82.7881C62.6695 74.2309 63.8241 65.6545 61.7534 57.1887C61.3288 55.4485 60.2219 53.8764 59.3678 52.1025C58.5997 52.6361 58.3182 52.7852 58.0892 52.9967C57.3878 53.6457 56.6769 54.2899 56.0185 54.9821C48.8951 62.4961 41.6477 69.8274 32.3248 74.6876C28.8132 76.5145 26.4371 79.6152 25.335 83.3746C23.5458 89.4656 21.8615 95.6142 20.6115 101.83C19.767 106.017 19.7384 110.373 19.3185 114.926V114.935ZM72.417 100.7C84.9414 102.349 97.0602 103.941 109.084 105.522C110.248 101.003 111.364 96.6622 112.49 92.2683C111.86 92.0519 111.426 91.8452 110.973 91.7539C104.856 90.4992 98.8065 89.0425 92.4274 90.004C86.6352 90.8789 80.7714 91.2299 74.941 91.8356C73.4667 91.9894 72.3836 92.5904 72.4123 94.3451C72.4409 96.4795 72.417 98.6188 72.417 100.696V100.7ZM114.036 10.1821C112.729 10.1821 111.87 10.1676 111.011 10.1821C107.309 10.2446 107.266 10.2397 106.774 13.9991C105.753 21.8352 104.78 29.6712 103.802 37.5121C103.291 41.6272 102.638 45.7327 102.356 49.8671C101.951 55.8379 101.846 61.8327 101.564 67.8131C101.445 70.3658 101.039 72.9137 101.073 75.4568C101.092 76.9471 101.011 78.8556 103.659 79.5095C103.153 55.7273 108.63 33.1133 114.036 10.1821ZM81.5109 20.3641C80.3515 21.1862 79.8601 21.5563 79.3496 21.8977C77.1691 23.3639 76.4964 25.2003 77.36 27.8348C78.1472 30.2385 78.3953 32.8201 79.0013 35.2911C82.1169 48.0547 81.969 61.1019 82.3173 74.1011C82.3697 76.0577 82.0787 78.024 81.9451 79.9854C82.1837 80.1681 82.4222 80.3507 82.6608 80.5334C83.3574 79.9469 84.5931 79.4181 84.6599 78.7595C85.3326 72.4907 86.2726 66.193 86.2296 59.9097C86.1724 51.6314 85.5664 43.3338 84.6838 35.1036C84.1637 30.2625 82.656 25.5273 81.5109 20.3641ZM124.308 12.504C124.037 13.1338 123.636 13.903 123.369 14.7154C121.909 19.0853 120.444 23.4601 119.055 27.854C115.472 39.1851 112.323 50.6218 111.359 62.5346C110.94 67.7025 110.82 72.8993 110.672 78.0817C110.658 78.6393 111.393 79.221 111.784 79.7883C112.266 79.2931 112.996 78.8701 113.173 78.2788C113.464 77.3077 113.397 76.226 113.487 75.1924C113.993 69.4764 114.213 63.7172 115.071 58.0541C117.066 44.8866 121.656 32.5028 126.995 20.393C129.604 14.4702 129.686 14.5087 124.79 12.3935C124.733 12.3694 124.647 12.4223 124.304 12.5088L124.308 12.504ZM95.3044 13.3021C93.4103 13.9318 91.8835 14.4606 90.3424 14.951C88.6105 15.499 88.4244 16.624 88.8347 18.2585C91.7069 29.7529 92.8473 41.4638 92.9665 53.2899C93.0477 61.2846 92.9665 69.2841 93.0238 77.2836C93.0238 77.9182 93.5248 78.5528 93.7872 79.1874C94.1689 78.572 94.8369 77.9807 94.8893 77.3365C95.3044 72.183 95.8388 67.0247 95.8865 61.8615C96.0058 49.545 95.9199 37.2284 95.834 24.9119C95.8102 21.2054 95.5048 17.4989 95.2997 13.3069L95.3044 13.3021ZM136.437 20.1382C125.487 38.3245 119.113 57.5877 118.779 79.072C119.876 78.971 120.687 78.8941 121.474 78.8172C121.899 74.9905 122.099 71.3321 122.744 67.7602C123.96 61.0443 124.829 54.1697 126.956 47.7374C129.681 39.5023 133.965 31.8826 139.066 24.8158C139.953 23.5899 139.743 22.5995 138.66 21.7102C138.049 21.2102 137.372 20.792 136.437 20.1334V20.1382ZM70.0267 33.4931C66.329 36.2381 65.7756 38.2236 67.2212 41.882C67.9512 43.7328 68.6573 45.6029 69.1726 47.5211C71.6584 56.8186 71.6346 66.4237 72.5554 75.9135C72.7415 77.8461 73.2186 79.7498 73.5621 81.668C73.9104 81.6007 74.2587 81.5334 74.607 81.4661C77.3743 65.1786 75.337 49.3383 70.0219 33.4931H70.0267ZM128.545 77.0096C128.884 77.2308 129.218 77.4567 129.557 77.6778C130.043 77.0144 130.802 76.4087 130.964 75.6683C131.871 71.5773 132.405 67.39 133.488 63.3518C135.955 54.1408 139.705 45.4779 145.283 37.6996C146.948 35.3824 146.838 34.0796 144.724 32.022C133.922 45.0981 130.563 60.8135 128.545 77.0048V77.0096ZM139.066 70.6927C146.9 65.9093 149.997 52.6121 147.797 47.6701C142.62 54.362 140.249 62.0971 139.066 70.6927ZM124.442 108.19C126.494 107.926 128.674 109.594 128.96 106.854C129.204 104.513 128.617 102.08 128.393 99.6909L127.92 99.638L124.437 108.186L124.442 108.19Z" fill="#1D1D1D"/>
</g>
<defs>
<clipPath id="clip0_210_68">
<rect width="164" height="231" fill="white"/>
</clipPath>
</defs>
</svg>
