<svg width="176" height="231" viewBox="0 0 176 231" fill="none" xmlns="http://www.w3.org/2000/svg">
<g clip-path="url(#clip0_210_97)">
<path d="M171.059 133.783C170.415 133.567 169.462 133.012 169.406 132.527C169.02 129.2 168.819 125.849 168.593 122.503C168.518 121.425 168.593 120.333 168.499 119.255C168.231 116.102 167.898 112.949 167.612 109.791C167.02 103.259 166.475 96.7173 165.836 90.185C165.681 88.6132 166.019 88.2225 167.616 88.6508C169.316 89.1167 171.143 89.5779 172.844 89.385C173.811 89.2814 175.272 87.959 175.403 87.0272C175.92 83.3751 172.59 79.6572 169.025 78.9089C164.883 78.0383 160.825 76.7629 156.72 75.704C153.954 74.9887 151.188 74.2498 148.384 73.6944C143.152 72.6544 137.901 71.6896 132.641 70.7954C130.682 70.466 128.55 70.7672 126.723 70.1318C125.333 69.6424 122.98 70.6448 122.567 68.2729C121.806 63.9196 121.228 59.5334 120.58 55.1567C119.631 48.7891 118.8 42.3981 117.71 36.0541C116.799 30.722 115.564 25.4416 114.517 20.133C113.657 15.775 112.304 11.6665 110.055 7.76505C106.979 2.42819 101.822 0.239803 96.5145 0.0515547C88.0466 -0.244937 79.5317 0.790431 71.0402 1.374C67.701 1.5999 64.3852 2.21641 61.0459 2.49879C55.5556 2.96 50.0465 3.25649 44.5515 3.68946C35.7031 4.39069 26.8641 5.21428 18.011 5.8355C17.9218 5.8402 17.8373 5.84491 17.7574 5.84962H17.7527C16.9496 5.60489 8.79165 7.52032 8.15761 7.87329C1.63874 11.4924 -0.56396 17.6622 0.117045 24.4721C0.628974 29.5737 1.77964 34.6093 2.63442 39.6779C3.83674 46.7984 5.08604 53.9142 6.20382 61.0535C7.3357 68.2588 8.33138 75.4875 9.39751 82.7069C9.59476 84.0434 9.8249 85.3706 10.0409 86.726C8.40183 86.8577 7.09618 86.8907 5.81401 87.0836C4.52714 87.2766 3.18861 87.4507 2.00977 87.9543C0.154618 88.7496 -0.17884 93.7994 1.58708 94.7595C3.67706 95.8937 5.94082 96.6984 8.10125 97.715C9.75445 98.4962 11.5485 99.0657 11.5908 101.522C11.619 103.019 12.3141 104.497 12.5489 106.007C13.2816 110.676 14.2115 115.34 14.5262 120.046C14.761 123.514 14.019 127.049 13.7841 130.55C13.6432 132.635 13.4413 134.715 13.244 136.795C12.8777 140.584 12.5677 144.387 12.0652 148.156C11.6988 150.9 10.9145 153.582 10.5341 156.322C9.90944 160.83 9.51962 165.367 8.91845 169.875C8.28441 174.629 7.4719 179.358 6.82377 184.112C6.44335 186.86 6.50441 189.693 5.87037 192.371C5.0062 196.009 5.91264 202.824 9.59946 204.819C11.8209 206.019 16.1653 205.181 18.26 205.177C20.8572 205.167 22.4024 204.32 24.9197 203.845C29.3204 203.017 33.6554 201.784 37.9575 200.527C38.3989 200.4 40.2682 200 41.9777 199.6C42.2595 203.694 42.4944 207.793 42.8325 211.878C43.0063 213.968 43.7249 216.02 43.8188 218.109C44.0302 222.802 47.6465 228.755 52.0425 230.03C54.9168 230.863 58.8902 231 61.5156 231C64.141 231 74.821 228.84 81.0581 227.362C84.5054 226.543 88.0231 226.016 91.461 225.159C94.758 224.34 97.9893 223.23 101.267 222.312C108.2 220.364 115.16 218.5 122.083 216.514C126.328 215.295 130.49 213.742 134.764 212.636C141.545 210.885 146.421 209.685 153.188 207.888C155.607 207.243 161.52 204.466 164.202 203.497C166.884 202.527 168.551 200.405 170.331 196.127C172.111 191.849 172.181 186.771 172.942 181.909C173.553 177.984 173.412 173.909 173.252 169.913C172.933 161.795 173.726 153.474 169.579 145.94C172.745 145.234 174.971 143.746 175.488 141.977C176.822 137.45 175.633 135.299 171.064 133.783H171.059ZM145.34 90.8392C146.204 88.7308 147.139 86.6507 148.05 84.5376C151.615 85.3329 155.447 86.1236 159.233 87.093C159.853 87.2531 160.684 88.1849 160.722 88.8014C161.069 94.5665 161.135 100.355 161.544 106.116C161.985 112.347 162.638 118.564 163.356 124.766C163.572 126.668 164.324 128.503 164.789 130.381C164.85 130.64 164.662 130.96 164.512 131.576C162.807 130.946 161.351 130.442 159.928 129.873C158.66 129.364 157.462 128.663 156.171 128.249C149.755 126.197 143.325 124.178 136.877 122.225C135.017 121.66 134.726 120.959 135.435 118.996C137.746 112.629 139.657 106.116 141.841 99.701C142.865 96.6984 144.138 93.7806 145.34 90.8392ZM141.165 83.1351C137.459 94.303 133.744 105.508 129.842 117.274C127.972 104.323 126.159 91.7381 124.276 78.6783C130.457 80.3067 135.989 81.7703 141.165 83.1351ZM125.68 126.493C123.825 125.943 119.1 124.517 117.753 124.54C116.405 124.564 115.893 123.698 117.447 123.378C119.002 123.058 122.891 122.234 125.643 121.947C127.249 121.778 127.531 127.044 125.676 126.493H125.68ZM101.587 6.26847C104.593 10.4994 107.923 14.5655 109.064 19.8224C110.116 24.6698 111.257 29.5078 112.098 34.3928C113.521 42.6664 114.676 50.9869 116.066 59.2652C116.898 64.2114 118.039 69.1106 118.884 74.0568C119.551 77.963 120.002 81.9115 120.505 85.8412C121.031 89.9121 121.472 93.9924 122.017 98.0585C122.505 101.744 123.041 105.424 123.637 109.09C123.994 111.292 124.53 113.462 124.952 115.655C125.098 116.403 125.15 117.17 125.276 118.192C121.383 118.644 117.673 119.067 114.324 119.453C114.174 117.683 114.094 115.599 113.812 113.542C112.699 105.513 111.562 97.4844 110.365 89.465C109.383 82.848 108.256 76.2546 107.289 69.633C106.819 66.4375 106.645 63.1949 106.222 59.9899C105.4 53.7683 104.485 47.5561 103.639 41.3392C103.141 37.706 102.615 34.0728 102.273 30.4255C101.657 23.8368 101.188 17.234 100.61 10.6405C100.474 9.12044 100.126 7.61445 99.7881 5.57665C100.793 5.94845 101.38 5.97198 101.587 6.26847ZM81.6921 163.423C81.6921 163.423 86.1163 162.783 88.0748 162.402C91.6536 161.701 95.223 160.985 98.8112 160.336C103.724 159.446 108.651 158.613 113.573 157.766C115.761 157.39 117.959 157.037 120.599 156.604C119.955 158.59 119.434 160.166 118.927 161.748C117.767 165.357 117.006 169.165 115.343 172.525C113.756 175.753 110.759 177.895 107.209 179.02C104.236 179.966 101.329 181.18 98.2992 181.872C93.4148 182.992 88.4505 183.754 83.5285 184.714C81.0956 185.185 78.6816 185.768 76.2535 186.272C73.3275 186.874 70.378 187.368 67.4708 188.046C62.2811 189.265 52.2445 192.188 46.1859 193.915C46.1013 192.752 45.9839 191.585 45.9417 190.423C45.7961 186.201 45.735 181.97 45.5143 177.754C45.4485 176.544 44.8427 175.377 44.6642 174.163C44.4904 172.977 44.6313 171.744 44.4857 170.544C44.002 166.628 43.4384 162.717 42.9452 158.802C42.8184 157.771 42.8325 156.722 42.7856 155.752C46.5945 157.889 50.1028 160.101 53.8272 161.851C56.0957 162.915 58.6694 163.71 61.1445 163.837C65.7519 164.068 72.9095 164.077 75.0042 164.049C77.0988 164.021 81.6921 163.423 81.6921 163.423ZM41.9026 141.436C54.0433 146.895 65.8411 152.199 77.8785 157.611C77.1317 158.675 76.7231 159.258 76.648 159.366C75.2296 159.47 74.1776 159.63 73.1302 159.602C71.9373 159.569 70.7491 159.376 69.5608 159.239C66.1135 158.858 62.5065 158.971 59.2612 157.94C56.091 156.933 53.3106 154.721 50.3236 153.107C48.041 151.874 45.6552 150.834 43.4102 149.535C42.7386 149.145 42.0623 148.222 41.9684 147.469C41.757 145.747 41.9026 143.982 41.9026 141.436ZM36.5955 142.669C36.6283 144.057 36.6518 145.45 36.7833 146.834C36.8068 147.078 36.8303 147.319 36.8538 147.563C35.4871 146.928 33.9795 146.26 32.857 145.563C31.5278 144.74 31.4104 144.669 30.086 143.826C28.63 142.904 28.2355 142.429 26.3851 141.238C25.0935 140.245 23.9851 139.986 24.0556 139.313C26.1362 138.941 28.2637 138.748 30.2973 138.198C33.693 137.275 36.5203 139.21 36.5955 142.669ZM28.9024 112.827C29.6351 118.869 30.5462 124.893 31.5607 130.899C31.8848 132.814 31.5701 133.656 29.513 133.788C27.9537 133.887 26.3804 134.287 24.8869 134.781C23.3135 135.304 21.8388 134.414 21.5945 132.772C20.937 128.357 20.2889 123.943 19.7159 119.514C19.6079 118.695 19.8239 117.815 19.993 116.982C20.7492 113.231 21.5429 109.485 22.3695 105.523C26.3193 106.012 28.3623 108.375 28.9024 112.827ZM13.4929 74.5133C13.1548 72.2261 12.4033 69.9954 12.0558 67.7034C11.0648 61.1571 10.1396 54.6013 9.28009 48.0314C8.56151 42.5675 8.04489 37.0754 7.29343 31.6114C6.86135 28.4536 5.6825 25.3334 5.66372 22.1943C5.63554 17.5493 12.2202 12.2077 13.0655 12.9136C13.9109 13.6196 16.7054 39.4144 18.8236 52.7424C20.9417 66.0798 23.4121 79.3607 25.7886 93.0041C22.3789 91.6722 19.2134 90.4909 16.1136 89.1544C15.6205 88.9426 15.2213 88.0578 15.1367 87.4366C14.545 83.1351 14.1176 78.8101 13.4929 74.5133ZM17.6635 106.671C17.0389 105.057 16.5927 103.89 16.1277 102.694C18.5465 102.605 18.9785 103.49 17.6635 106.671ZM35.5575 196.183C31.8566 197.228 28.1886 198.4 24.4548 199.308C22.3366 199.826 20.101 199.84 17.9453 200.231C14.188 200.908 11.9243 200.127 10.365 197.035C9.88126 196.075 10.1302 194.701 10.1818 193.524C10.3697 189.373 10.4261 185.208 10.9051 181.09C11.3842 176.939 12.3704 172.854 13.0139 168.718C13.3426 166.595 13.3004 164.411 13.6291 162.289C14.3007 158.016 15.1931 153.771 15.8412 149.493C16.5081 145.088 16.9919 140.65 17.6353 135.628C18.0627 137.097 18.166 138.057 18.5981 138.833C21.1766 143.516 31.2038 150.486 37.4361 153.418C37.84 157.409 38.2487 161.4 38.6291 165.395C38.8686 167.918 38.9015 170.459 39.1739 172.972C39.8972 179.622 40.813 186.253 41.4376 192.908C41.5034 193.623 41.5691 194.338 41.6255 195.054C39.188 195.435 35.9943 196.056 35.5575 196.183ZM168.969 180.37C168.635 185.961 168.081 191.613 164.643 196.353C163.572 197.835 162.107 199.261 160.496 200.061C158.185 201.209 155.593 201.812 153.094 202.551C149.154 203.718 145.199 204.833 141.231 205.897C139.596 206.334 137.868 206.447 136.257 206.942C130.541 208.688 124.896 210.655 119.157 212.316C115.104 213.493 110.928 214.255 106.828 215.29C102.136 216.476 97.4773 217.794 92.7902 218.999C90.3902 219.615 87.948 220.053 85.548 220.665C78.9493 222.34 72.4257 224.373 65.7566 225.644C61.7128 226.416 57.5047 227.823 53.2637 225.776C50.4551 224.416 48.6798 221.794 48.4543 218.726C48.1397 214.439 47.3929 210.189 46.989 205.911C46.7542 203.431 46.6039 200.941 46.463 198.452C51.6668 197.284 61.1117 195.388 65.4654 193.905C69.2368 192.621 72.886 191.604 76.9157 191.59C79.0385 191.585 81.1426 190.456 83.2889 189.99C88.8403 188.79 94.387 187.576 99.9712 186.554C105.781 185.491 111.018 183.161 115.794 179.787C116.959 178.963 117.87 177.66 118.65 176.422C122.106 170.911 125.864 159.606 125.864 159.606C125.864 159.606 127.202 156.458 126.967 155.234C140.639 152.444 150.337 149.615 164.314 146.763C164.376 147.351 164.596 148.232 164.803 148.942C165.01 149.653 166.973 156.312 167.776 160.303C168.311 162.971 168.617 165.71 168.762 168.435C168.974 172.407 169.204 176.408 168.969 180.37ZM170.228 138.88C156.988 134.984 132.796 128.371 131.795 127.849C130.795 127.327 132.584 125.232 134.35 125.943C137.643 127.27 141.066 128.287 144.467 129.336C146.961 130.113 149.53 130.64 152.014 131.444C157.533 133.233 163.023 135.115 168.518 136.979C169.222 137.219 169.889 137.577 170.575 137.883L170.228 138.88Z" fill="#E6BF21"/>
</g>
<defs>
<clipPath id="clip0_210_97">
<rect width="176" height="231" fill="white"/>
</clipPath>
</defs>
</svg>
